<svg version="1.1" id="logo.svg" xmlns="http://www.w3.org/2000/svg" x="0" y="0" width="2421.316" height="332" viewBox="0 0 2421.316 332" xml:space="preserve"><style>.st0,.st1,.st2{fill-rule:evenodd;clip-rule:evenodd;fill:#385cae}.st1,.st2{fill:#f58220}.st2{fill:#fff}</style><g id="四角"><path id="長方形_2" class="st0" d="M-.015 0H142.17v142.381H-.015V0z"/><path id="長方形_2_のコピー" class="st0" d="M150.142 189.619h142.184V332H150.142V189.619z"/><path id="長方形_2_のコピー_2" class="st1" d="M150.142 39.255h142.184v142.38H150.142V39.255z"/><path id="長方形_2_のコピー_3" class="st1" d="M-.015 151.03H142.17v142.381H-.015V151.03z"/></g><g id="文字"><path id="P" class="st2" d="M50.077 106.374h7.654V90.853h17.7c17.221 0 26.6-10.443 26.6-23.28s-9.376-23.28-26.5-23.28H50.077v62.081zm7.654-22.227V51h18.56c10.811 0 17.795 7.473 17.795 16.574s-6.984 16.574-17.89 16.574l-18.465-.001z"/><path id="S" class="st2" d="M221.756 289.632c11.87 0 24.59-5.461 24.59-18.2 0-11.592-11.57-15.52-23.05-18.394-8.328-2.108-15.408-4.215-15.408-10.634 0-6.9 7.845-9.772 13.968-9.772a28.126 28.126 0 0117.7 5.748l3.16-5.844c-6.22-4.982-13.21-6.9-20.86-6.9-11.1 0-21.717 5.652-21.717 16.766 0 11.5 11.1 15.041 22.2 17.819 7.94 2.012 15.98 4.12 15.98 11.209 0 7.665-8.42 11.209-16.46 11.209a28.777 28.777 0 01-21.048-8.43l-3.252 5.748c4.497 4.789 11.956 9.675 24.197 9.675z"/><path id="O" class="st2" d="M223.686 148.591c18.54 0 32.54-14.31 32.54-32.293s-14-32.293-32.54-32.293c-18.636 0-32.636 14.31-32.636 32.293s14 32.293 32.636 32.293zm0-7.058c-14 0-24.622-11.312-24.622-25.235s10.621-25.235 24.622-25.235c13.9 0 24.52 11.312 24.52 25.235s-10.62 25.235-24.52 25.235z"/><path id="O-2" class="st2" d="M71.534 247.725c18.538 0 32.538-14.309 32.538-32.293s-14-32.293-32.538-32.293c-18.634 0-32.634 14.31-32.634 32.293s14 32.293 32.634 32.293zm0-7.058c-14 0-24.62-11.312-24.62-25.235s10.62-25.235 24.62-25.235c13.9 0 24.525 11.313 24.525 25.235s-10.621 25.235-24.525 25.235z"/></g><path id="POSO_S_NOTE" d="M435.076 242.13h27.08v-35.954h36.42c43.66 0 66.77-25.681 66.77-57.666 0-31.751-23.11-57.666-66.54-57.666h-63.73V242.13zm27.08-59.3v-68.64h38.52c22.41 0 36.42 15.409 36.42 34.32s-14.01 34.32-36.65 34.32h-38.29zm248.89 61.635c45.76 0 79.61-34.553 79.61-77.978 0-43.191-33.85-77.978-79.61-77.978s-79.61 34.787-79.61 77.978c0 43.425 33.85 77.978 79.61 77.978zm.23-24.514c-29.65 0-51.59-24.281-51.59-53.464s21.94-53.464 51.59-53.464c29.19 0 51.13 24.281 51.13 53.464s-21.94 53.464-51.13 53.464zm206.87 24.514c29.89 0 61.17-14.242 61.17-45.993 0-29.417-27.78-40.156-56.5-46.927-18.21-4.436-31.75-8.405-31.75-20.545 0-13.775 17.28-17.977 27.32-17.977a77.647 77.647 0 0143.19 12.607l10.5-20.778c-15.17-10.273-31.98-16.343-53.69-16.343-28.02 0-54.87 14.475-54.87 42.724 0 30.118 28.72 38.989 56.5 45.526 15.41 3.736 31.05 7.938 31.05 21.713s-16.34 21.479-32.68 21.479c-22.65 0-37.83-7.7-50.2-17.744l-10.51 20.545c10.04 9.339 27.55 21.713 60.47 21.713zm208.5 0c45.76 0 79.61-34.553 79.61-77.978 0-43.191-33.85-77.978-79.61-77.978s-79.61 34.787-79.61 77.978c0 43.425 33.85 77.978 79.61 77.978zm.24-24.514c-29.65 0-51.6-24.281-51.6-53.464s21.95-53.464 51.6-53.464c29.18 0 51.13 24.281 51.13 53.464s-21.95 53.464-51.13 53.464zm142.43-69.807h17.28l19.84-59.3h-24.28l-12.84 59.3zm170.91 94.321c29.88 0 61.17-14.242 61.17-45.993 0-29.417-27.79-40.156-56.5-46.927-18.21-4.436-31.76-8.405-31.76-20.545 0-13.775 17.28-17.977 27.32-17.977a77.647 77.647 0 0143.19 12.607l10.51-20.778c-15.18-10.273-31.99-16.343-53.7-16.343-28.02 0-54.86 14.475-54.86 42.724 0 30.118 28.71 38.989 56.49 45.526 15.41 3.736 31.06 7.938 31.06 21.713s-16.35 21.479-32.69 21.479c-22.65 0-37.82-7.7-50.19-17.744l-10.51 20.545c10.04 9.339 27.55 21.713 60.47 21.713zm232.55-2.335h27.08V133.1s12.14 20.545 25.22 38.522l51.59 70.507h28.02V90.844h-27.08v109.962s-12.38-21.012-23.11-35.72l-54.17-74.242h-27.55V242.13zm284.62 2.335c45.75 0 79.61-34.553 79.61-77.978 0-43.191-33.86-77.978-79.61-77.978s-79.62 34.787-79.62 77.978c0 43.425 33.86 77.978 79.62 77.978zm.23-24.514c-29.65 0-51.6-24.281-51.6-53.464s21.95-53.464 51.6-53.464c29.18 0 51.13 24.281 51.13 53.464s-21.95 53.464-51.13 53.464zm194.73 22.179h27.08V114.19h53.23V90.844h-133.54v23.346h53.23v127.94zm148.27 0h120.7v-23.347h-93.62v-44.592h85.21v-23.113h-85.21V114.19h90.35V90.844h-117.43V242.13z" fill-rule="evenodd" clip-rule="evenodd" fill="#222"/></svg>